<?xml version="1.0" encoding="UTF-8" standalone="no"?>
<!-- Created with Inkscape (http://www.inkscape.org/) -->

<svg
   width="29.386169mm"
   height="46.336773mm"
   viewBox="0 0 29.386169 46.336773"
   version="1.1"
   id="svg1"
   inkscape:version="1.4.3 (0d15f75042, 2025-12-25)"
   sodipodi:docname="bg-edge.svg"
   xmlns:inkscape="http://www.inkscape.org/namespaces/inkscape"
   xmlns:sodipodi="http://sodipodi.sourceforge.net/DTD/sodipodi-0.dtd"
   xmlns="http://www.w3.org/2000/svg"
   xmlns:svg="http://www.w3.org/2000/svg">
  <sodipodi:namedview
     id="namedview1"
     pagecolor="#505050"
     bordercolor="#eeeeee"
     borderopacity="1"
     inkscape:showpageshadow="0"
     inkscape:pageopacity="0"
     inkscape:pagecheckerboard="0"
     inkscape:deskcolor="#505050"
     inkscape:document-units="mm"
     inkscape:zoom="0.46591611"
     inkscape:cx="-370.23833"
     inkscape:cy="200.67991"
     inkscape:window-width="1366"
     inkscape:window-height="736"
     inkscape:window-x="0"
     inkscape:window-y="0"
     inkscape:window-maximized="1"
     inkscape:current-layer="layer1" />
  <defs
     id="defs1" />
  <g
     inkscape:label="Layer 1"
     inkscape:groupmode="layer"
     id="layer1"
     transform="translate(-202.93542,-95.514583)">
    <path
       style="fill:#000000;stroke-width:0.264583"
       d="m 215.07387,95.730716 c 0,-0.205703 0.41918,-0.06703 0.5071,0.0209 0.0879,0.08792 -0.0683,0.150452 -0.34727,0.138964 -0.30821,-0.0127 -0.15983,0.0675 -0.15983,-0.159853 z"
       id="path340-1" />
    <path
       style="fill:#000000;stroke-width:0.264583"
       d="m 228.97743,100.34323 c 0.13547,-0.990535 0.13407,-0.992202 -0.83986,-1.000603 -0.91517,-0.0079 -0.94377,-0.03246 -0.46197,-0.396875 0.28247,-0.213653 0.78849,-0.388461 1.12448,-0.388461 0.52795,0 0.61209,-0.134686 0.61968,-0.992188 l 0.009,-0.992187 0.52039,0.624626 c 0.2862,0.343537 0.52035,0.78708 0.52035,0.985639 0,0.278199 0.15568,0.301821 0.67869,0.102978 0.86614,-0.329308 1.1734,-0.326109 1.1734,0.01222 0,0.14864 -0.29933,0.406638 -0.66517,0.573326 -0.57647,0.262651 -0.64309,0.420671 -0.49971,1.184955 0.18544,0.98856 -0.12304,1.15778 -0.63019,0.34568 -0.32911,-0.526962 -0.34652,-0.523539 -1.00973,0.19844 l -0.67484,0.73464 z"
       id="path336-2" />
    <path
       style="fill:#000000;stroke-width:0.264583"
       d="m 207.37717,105.71321 c -0.84072,-0.2687 -1.70921,-0.63845 -1.92995,-0.82165 -0.32896,-0.27301 -0.59021,-0.22699 -1.44799,0.25512 l -1.04658,0.58822 v -2.53406 c 0,-1.55212 0.12813,-2.75112 0.33073,-3.09421 0.26458,-0.448114 0.26458,-0.584097 0,-0.679913 -0.18191,-0.06588 -0.33073,-0.375851 -0.33073,-0.688837 0,-0.606526 1.99739,2.57658 2.1659,3.45168 0.20857,1.08298 0.62336,0.3379 0.7701,-1.38331 0.0868,-1.018647 0.31759,-2.186724 0.51279,-2.595714 l 0.35491,-0.74363 0.61034,1.008213 c 0.39537,0.653153 0.61079,1.425398 0.61166,2.192831 v 1.18461 l 0.71507,-0.71507 c 0.68534,-0.68534 0.71251,-0.81708 0.65376,-3.168984 l -0.0613,-2.453923 0.80145,0.864071 c 0.4408,0.475239 0.80145,1.040786 0.80145,1.25677 0,0.47411 0.5179,0.531834 0.55597,0.06197 0.0148,-0.181901 0.006,-0.717682 -0.0204,-1.190625 -0.0416,-0.759833 0.0322,-0.859896 0.63465,-0.859896 0.61571,0 0.68173,0.09964 0.68173,1.028888 0,0.962314 0.0587,1.0399 0.90717,1.199073 1.18192,0.221732 2.2433,1.064234 1.84812,1.467033 -0.49927,0.508934 -2.12281,0.628629 -2.94735,0.217297 -0.6699,-0.334195 -0.84082,-0.334018 -1.34597,0.0013 -0.895,0.594256 -0.70278,0.920786 1.01164,1.718496 1.14797,0.53416 1.58472,0.88054 1.58472,1.25677 0,0.45631 -0.186,0.51939 -1.53154,0.51939 -0.9993,0 -1.88542,-0.18041 -2.54974,-0.5191 -0.75276,-0.38378 -1.1467,-0.45033 -1.51116,-0.25528 -0.27112,0.14511 -0.49139,0.34894 -0.48948,0.45296 0.003,0.10402 0.7212,0.53379 1.59842,0.95505 1.77332,0.85157 2.87563,1.95857 2.30855,2.31841 -0.57198,0.36297 -2.6407,0.21979 -4.24842,-0.29404 z m 2.58693,-0.54134 c -0.09,-0.14552 -0.27556,-0.26458 -0.41251,-0.26458 -0.13692,0 -0.24894,0.11906 -0.24894,0.26458 0,0.14553 0.1856,0.26459 0.41248,0.26459 0.22686,0 0.33891,-0.11906 0.24897,-0.26459 z m 0.39688,-3.27643 c 0,-0.0558 -0.23813,-0.1637 -0.52917,-0.23981 -0.29104,-0.0761 -0.52916,-0.0305 -0.52916,0.10143 0,0.1319 0.23812,0.23981 0.52916,0.23981 0.29104,0 0.52917,-0.0456 0.52917,-0.10143 z m -3.38479,-3.653757 c -0.2214,-0.221409 -0.31938,-0.228627 -0.31938,-0.02352 0,0.162722 -0.0764,0.513956 -0.16986,0.780521 -0.16177,0.461595 -0.14658,0.462717 0.31938,0.02352 0.38214,-0.360175 0.41934,-0.531059 0.16986,-0.780521 z m 8.14729,0.719277 c 0,-0.205279 -1.6256,-0.982953 -1.76443,-0.8441 -0.0703,0.07027 0.20868,0.304538 0.61989,0.52061 0.80992,0.425577 1.14454,0.52015 1.14454,0.32349 z m -4.49792,-0.520345 c 0,-0.06417 -0.11906,-0.190262 -0.26458,-0.280199 -0.14552,-0.08994 -0.26458,-0.03743 -0.26458,0.116679 0,0.154109 0.11906,0.280196 0.26458,0.280196 0.14552,0 0.26458,-0.0525 0.26458,-0.116676 z"
       id="path330-7" />
    <path
       style="fill:#000000;stroke-width:0.264583"
       d="m 215.55589,106.09187 c -0.5927,-0.0593 -0.47959,-0.38488 0.0342,-1.23613 0.29027,-0.48097 1.08415,-2.30324 1.76416,-4.04949 1.91532,-4.918512 2.03509,-5.159376 2.5654,-5.159376 0.39542,0 0.44029,0.110813 0.24881,0.614453 l -0.2336,0.61445 1.49693,-0.357953 c 0.82331,-0.196871 1.71689,-0.481623 1.9857,-0.632782 0.80518,-0.452726 0.79799,-0.07736 -0.0217,1.132303 -0.63913,0.943221 -0.75401,1.34367 -0.65699,2.290405 l 0.11758,1.14733 0.87101,-0.844229 c 0.84629,-0.820272 0.86048,-0.869497 0.49921,-1.734148 -0.43796,-1.048178 -0.45145,-1.171495 -0.12827,-1.171495 0.13396,0 0.32737,0.381632 0.42982,0.848069 l 0.18627,0.848071 0.48622,-0.600443 c 0.33725,-0.416467 0.4386,-0.83844 0.33084,-1.377235 -0.15383,-0.769173 0.25865,-1.116798 0.5293,-0.446066 0.10676,0.264583 0.13763,0.264583 0.15435,0 0.0275,-0.434772 1.3438,-0.430935 1.3438,0.0039 0,0.888225 -2.45214,4.388646 -2.96283,4.229416 -0.11669,-0.0364 -0.21217,0.099 -0.21217,0.30092 0,0.52881 -3.30587,3.11242 -5.09834,3.98449 -0.83958,0.40845 -1.59075,0.8466 -1.66928,0.97366 -0.0785,0.12708 -0.36796,0.23104 -0.64318,0.23104 -0.27522,0 -0.59563,0.1693 -0.71199,0.37623 -0.17965,0.31947 -0.18818,0.0663 -0.7052,0.0146 z m 5.23462,-4.0234 c 1.09929,-0.7749 1.21214,-0.9541 1.21214,-1.92502 v -1.070579 l -1.63217,1.925019 c -2.72491,3.21386 -2.61069,3.04295 -1.63049,2.44041 0.46112,-0.28346 1.38385,-0.89988 2.05052,-1.36983 z m -1.50667,-0.76192 c -0.3017,-0.30171 -1.24306,0.35221 -1.60766,1.11679 -0.6582,1.38031 -0.51861,1.40865 0.63788,0.12948 0.57873,-0.64011 1.0151,-1.20093 0.96978,-1.24627 z m 2.19226,-2.723473 c 0.71167,-0.950296 1.2701,-1.750779 1.24097,-1.778854 -0.0291,-0.02807 -0.69127,0.07562 -1.47145,0.230428 -1.41756,0.281294 -1.41893,0.282546 -2.18281,1.985055 -0.42037,0.936969 -0.76433,1.740864 -0.76433,1.786444 0,0.0456 0.42381,-0.0472 0.94184,-0.2062 0.69209,-0.21241 1.28497,-0.747246 2.23578,-2.016873 z"
       id="path328-0" />
    <path
       style="fill:#000000;stroke-width:0.264583"
       d="m 203.54796,108.8177 c -0.44162,-0.21298 -0.59531,-0.51576 -0.59531,-1.17272 0,-0.48708 0.0551,-0.88561 0.12234,-0.88561 0.0673,0 0.78991,0.24976 1.60576,0.55501 0.81586,0.30526 1.53834,0.50007 1.60549,0.43292 0.16047,-0.16048 -2.38506,-1.25251 -2.91963,-1.25251 -0.2277,0 -0.41396,-0.13197 -0.41396,-0.29327 0,-0.40464 1.07246,-0.11421 3.2413,0.87776 3.08414,1.41061 3.02056,2.06347 -0.1986,2.03939 -1.01864,-0.008 -2.11997,-0.14306 -2.44739,-0.30097 z m 3.96875,-0.38147 c -0.1819,-0.0734 -0.47956,-0.0734 -0.66146,0 -0.1819,0.0734 -0.0331,0.13345 0.33073,0.13345 0.3638,0 0.51263,-0.0601 0.33073,-0.13345 z"
       id="path327-9" />
    <path
       style="fill:#000000;stroke-width:0.264583"
       d="m 202.95265,110.45744 v -1.06443 l 0.6722,0.44044 c 0.3697,0.24224 0.78359,0.64857 0.91971,0.90294 0.19521,0.36474 0.12304,0.49586 -0.34147,0.62037 -1.115,0.29889 -1.25044,0.20148 -1.25044,-0.89932 z"
       id="path325-3" />
    <path
       style="fill:#000000;stroke-width:0.264583"
       d="m 214.35095,113.63854 c 0.38573,-0.8099 0.50795,-0.96 0.50795,-0.62383 0,0.14196 -0.18519,0.48922 -0.41148,0.7717 -0.38799,0.48427 -0.39349,0.47583 -0.0965,-0.14787 z"
       id="path323-6" />
    <path
       style="fill:#000000;stroke-width:0.264583"
       d="m 212.75898,114.74519 c -0.0111,-0.22918 -0.20259,-0.28957 -0.55936,-0.17634 -0.35298,0.11203 -0.14494,-0.20306 0.59531,-0.9016 1.01354,-0.95644 1.07284,-1.07453 0.54261,-1.08043 -0.32742,-0.004 -0.59531,0.10055 -0.59531,0.23154 0,0.13098 -0.44649,0.23369 -0.99219,0.22824 -0.5457,-0.005 -1.73929,0.0233 -2.65239,0.064 -1.85148,0.0824 -2.21343,-0.0774 -1.58909,-0.70178 0.26636,-0.26636 1.19271,-0.50405 2.4978,-0.64089 1.14091,-0.11963 2.13394,-0.22655 2.2067,-0.23759 0.0728,-0.011 -0.35904,-0.24319 -0.95956,-0.51588 -0.6005,-0.27269 -1.1847,-0.64606 -1.29818,-0.8297 -0.20831,-0.33703 0.4146,-0.30739 3.44837,0.16414 l 1.05833,0.1645 -0.79375,-0.51621 c -0.99898,-0.64968 -1.85658,-1.60173 -1.63888,-1.81941 0.29252,-0.29254 3.20111,1.23309 3.95399,2.07398 0.5907,0.65977 0.72014,1.04237 0.68794,2.03358 -0.0277,0.85215 -0.0711,0.98117 -0.14367,0.42717 -0.18606,-1.41968 -0.40587,-1.64839 -0.63579,-0.66146 -0.23863,1.02445 -0.0723,1.9437 0.309,1.70802 0.13505,-0.0835 0.24554,0.0934 0.24554,0.39303 0,0.83231 -0.2403,0.65687 -0.79391,-0.5797 -0.27689,-0.61846 -0.57986,-1.10632 -0.67326,-1.08414 -0.35335,0.0839 -1.77202,1.56926 -1.98316,2.07633 -0.12115,0.29104 -0.22786,0.37232 -0.23709,0.18061 z m -1.15433,-2.39837 c 0.35042,-0.20191 0.0919,-0.2319 -0.97909,-0.11359 -2.07084,0.22875 -2.91965,0.65607 -1.00528,0.50608 0.82955,-0.065 1.72252,-0.24162 1.98437,-0.39249 z m 2.59279,-1.35411 c 0.45574,-0.19585 0.41904,-0.23038 -0.26459,-0.2489 -0.43656,-0.0118 -1.27,-0.0952 -1.85208,-0.18535 -0.74006,-0.11456 -0.97877,-0.0796 -0.79375,0.11634 0.14552,0.1541 0.6813,0.32915 1.19063,0.38899 0.50932,0.0598 0.98557,0.1195 1.05833,0.13256 0.0728,0.0131 0.37042,-0.0786 0.66146,-0.20364 z m 1.29704,-0.89807 c -0.14653,-0.38183 -2.74183,-1.5818 -2.95661,-1.36703 -0.16389,0.16389 2.3368,1.73593 2.7614,1.73593 0.18521,0 0.27305,-0.166 0.19521,-0.3689 z"
       id="path322-0" />
    <path
       style="fill:#000000;stroke-width:0.264583"
       d="m 210.0964,115.38664 c 0,-0.0572 0.18475,-0.17489 0.4106,-0.26155 0.23546,-0.0904 0.34166,-0.046 0.24898,0.10398 -0.15539,0.25141 -0.65958,0.37186 -0.65958,0.15757 z"
       id="path321-6" />
    <path
       style="fill:#000000;stroke-width:0.264583"
       d="m 209.03806,115.46016 c 0,-0.16227 0.42805,-0.68713 0.95126,-1.16635 1.04492,-0.95713 2.01364,-1.36973 1.77877,-0.75761 -0.0774,0.20181 -0.238,0.36692 -0.35679,0.36692 -0.40378,0 -1.84624,1.36997 -1.69688,1.61162 0.0817,0.13226 -0.037,0.24047 -0.26387,0.24047 -0.22688,0 -0.41249,-0.13277 -0.41249,-0.29505 z"
       id="path320-2" />
    <path
       style="fill:#000000;stroke-width:0.264583"
       d="m 203.54796,121.30321 c -0.56454,-0.22691 -0.59531,-0.38339 -0.59531,-3.02518 v -2.78589 l 0.85989,-0.36071 c 1.41097,-0.59188 1.72226,0.0442 0.60934,1.24509 l -0.64741,0.69857 0.71355,0.14709 c 1.74154,0.35899 2.26648,0.54593 2.3653,0.84233 0.12277,0.3683 -0.97425,0.70385 -2.33492,0.71418 l -0.94779,0.007 0.45759,0.79976 c 1.03974,1.8172 0.9112,2.27686 -0.48024,1.71756 z"
       id="path319-6" />
    <path
       style="fill:#000000;stroke-width:0.264583"
       d="m 202.96005,129.82688 c -0.004,-0.33699 0.11991,-0.85062 0.27554,-1.1414 0.20331,-0.37989 0.19921,-0.62957 -0.0146,-0.88716 -0.16597,-0.19997 -0.25953,-0.98222 -0.21156,-1.76903 l 0.0859,-1.41054 0.54678,1.18466 0.54682,1.18466 0.37399,-0.77443 c 0.46476,-0.96242 1.88449,-1.82928 2.61575,-1.59719 1.13974,0.36175 0.42018,1.38083 -1.15554,1.63653 -1.1339,0.18401 -1.38735,0.46323 -2.32998,2.56691 -0.4799,1.07096 -0.72826,1.41212 -0.73319,1.00699 z"
       id="path318-1" />
    <path
       style="fill:#000000;stroke-width:0.264583"
       d="m 202.95265,131.48555 c 0,-0.72652 1.45938,-2.20531 2.55831,-2.59234 0.69167,-0.24359 1.41044,0.15476 1.41044,0.7817 0,0.37701 -1.28162,1.2478 -2.97657,2.02245 l -0.99218,0.45345 z m 2.88835,-1.34342 c 0.34316,-0.30947 -0.21074,-0.26244 -0.77208,0.0656 l -0.66107,0.38626 0.66146,-0.1762 c 0.3638,-0.0969 0.71107,-0.22094 0.77169,-0.27562 z"
       id="path317-8" />
    <path
       style="fill:#000000;stroke-width:0.264583"
       d="m 209.29098,129.31511 c -0.56518,-4.94936 -0.49811,-6.53175 0.34618,-8.16906 0.3846,-0.74583 0.8827,-1.42644 1.10688,-1.51247 0.22421,-0.086 0.64601,-0.54738 0.93734,-1.02521 0.48549,-0.79625 0.52978,-0.81697 0.53068,-0.24816 0,0.34134 0.2209,0.93665 0.48969,1.32291 1.26317,1.81531 1.40472,3.9518 0.47453,7.16332 -0.42384,1.46329 -1.03238,2.74723 -1.89526,3.99873 -0.69906,1.01386 -1.3461,1.84338 -1.43791,1.84338 -0.0918,0 -0.34028,-1.51805 -0.55213,-3.37344 z m 1.0923,0.59532 c 0.0266,-0.46281 0.052,-0.45242 0.20275,0.0828 0.15524,0.55132 0.24919,0.46988 0.94772,-0.82141 0.71286,-1.31786 0.74731,-1.50119 0.42714,-2.27413 -0.19153,-0.4624 -0.40749,-0.78147 -0.47988,-0.70906 -0.0724,0.0724 -0.28231,0.82036 -0.46646,1.66212 -0.18412,0.84177 -0.34697,1.30754 -0.36189,1.03506 -0.0225,-0.40971 -0.0958,-0.43844 -0.42397,-0.16604 -0.23704,0.19672 -0.39526,0.76922 -0.39283,1.42146 0.003,0.80257 0.072,0.98687 0.26054,0.69521 0.14105,-0.21828 0.27016,-0.635 0.28688,-0.92604 z m 0.60421,-3.21947 c 0,2.35005 0.28305,-2.40792 -0.69266,-1.52807 -0.71376,0.64363 -0.69127,0.59394 0.1323,-0.29238 1.38104,-1.48632 1.3377,-2.22811 -0.0734,-1.25656 -0.59343,0.40856 -0.62126,0.40951 -0.29956,0.0102 0.19503,-0.24208 0.57444,-0.50993 0.84312,-0.5952 0.37076,-0.11767 0.48504,-0.40872 0.474,-1.20731 -0.0127,-0.92834 -0.0654,-1.01403 -0.44627,-0.72765 -1.54564,1.16213 -1.62242,1.30943 -1.62004,3.10782 0.003,0.9569 0.0765,2.35736 0.16714,3.11214 0.16203,1.34854 0.17512,1.36559 0.75652,0.98464 0.41296,-0.27058 0.75888,-2.46717 0.75888,-1.60768 z m 1.87169,-0.81543 c 0.0967,-0.5457 0.2345,-1.19253 0.3062,-1.4374 0.0755,-0.25802 -0.19493,-0.80928 -0.64328,-1.31108 l -0.77365,-0.86586 -0.18756,1.61603 c -0.15098,1.30081 -0.0997,1.75009 0.26273,2.30327 0.60958,0.93034 0.82802,0.86601 1.03556,-0.30496 z m 0.11191,-3.7981 c -0.32559,-1.44921 -0.95189,-2.61805 -1.40276,-2.61805 -0.39836,0 -1.73652,1.461 -1.73652,1.89591 0,0.14729 0.38696,-0.0586 0.8599,-0.45746 l 0.85989,-0.72526 0.1323,0.77052 c 0.12864,0.74929 1.0183,2.19542 1.36093,2.21215 0.0937,0.005 0.0605,-0.48045 -0.0737,-1.07781 z"
       id="path315-7" />
    <path
       style="fill:#000000;stroke-width:0.264583"
       d="m 202.95265,135.06413 c 0,-0.87478 0.11623,-1.11697 0.65362,-1.36182 0.49977,-0.22771 0.74888,-0.21876 1.05834,0.0381 0.57081,0.47375 0.5113,0.73437 -0.3687,1.61436 -1.04005,1.04005 -1.34326,0.97446 -1.34326,-0.29061 z"
       id="path302-2" />
    <path
       style="fill:#000000;stroke-width:0.264583"
       d="m 203.00032,139.1047 c 0.07,-0.92766 0.14039,-0.98428 0.74608,-0.59997 0.33924,0.21526 0.3092,0.33952 -0.20704,0.85584 l -0.60394,0.60402 z"
       id="path292-0" />
    <path
       style="fill:#000000;stroke-width:0.0911558"
       d="m 204.90777,141.47485 c 0.0423,-0.15952 0.20252,-0.52599 0.35601,-0.81437 0.26963,-0.50657 0.27713,-0.56114 0.22159,-1.61069 -0.069,-1.30424 0.056,-2.32602 0.2886,-2.3588 0.19954,-0.0281 0.27593,0.27309 0.31545,1.24386 l 0.031,0.76215 0.42284,-0.80458 c 0.40274,-0.76633 0.41886,-0.82133 0.33925,-1.1571 -0.0889,-0.37482 -0.0198,-1.45178 0.12865,-2.00716 0.0749,-0.28002 0.11326,-0.32375 0.2362,-0.26903 0.18354,0.0817 0.3165,0.45826 0.37461,1.06093 0.0287,0.29734 0.0783,0.4274 0.13748,0.36053 0.0509,-0.0575 0.18147,-0.20464 0.29005,-0.32691 0.13201,-0.14864 0.2166,-0.34267 0.25524,-0.58552 0.0452,-0.28397 0.13315,-0.45227 0.40316,-0.77172 0.6602,-0.7811 0.85843,-0.33707 0.32298,0.72349 -0.19491,0.38606 -0.36294,0.61508 -0.49666,0.67693 -0.11363,0.0525 -0.3326,0.31931 -0.5002,0.60934 l -0.29811,0.51587 0.41292,-0.27224 c 0.70604,-0.46549 1.45415,-0.5331 1.26786,-0.11458 -0.13716,0.30814 -0.94984,0.9832 -1.75257,1.45581 -0.77214,0.4546 -0.88036,0.57257 -1.16769,1.27287 l -0.13846,0.33748 0.4825,-0.35811 c 0.83703,-0.62124 1.91897,-1.08555 2.00535,-0.86058 0.017,0.0441 -0.48166,0.58417 -1.24395,1.3473 -0.2178,0.21804 -0.73678,0.59318 -1.1533,0.83365 -0.67249,0.38824 -0.77457,0.47983 -0.91137,0.81764 -0.22437,0.55405 -0.37451,0.73131 -0.55238,0.65213 -0.10937,-0.0487 -0.13174,-0.15272 -0.0771,-0.35861 z m 1.61761,-1.47625 c 0.20286,-0.11613 0.61702,-0.47058 0.92035,-0.78767 l 0.55151,-0.57652 -0.31676,0.15834 c -0.38876,0.19433 -1.35483,0.98512 -1.57915,1.29265 -0.17914,0.24557 -0.14398,0.23837 0.42405,-0.0868 z m -0.70612,-1.82649 c 10e-4,-0.62001 -0.0793,-0.61849 -0.0947,0.002 -0.007,0.27266 0.0115,0.48658 0.0407,0.47539 0.0291,-0.0112 0.0535,-0.22592 0.0541,-0.47717 z m 1.84548,-0.72076 c 0.19098,-0.12756 0.57714,-0.43615 0.85813,-0.68576 l 0.51091,-0.45382 -0.30825,0.10735 c -0.29589,0.10304 -1.35889,0.93527 -1.44675,1.13266 -0.0735,0.16516 0.0278,0.13879 0.38596,-0.10043 z m -0.30212,-1.55204 c 0.041,-0.47426 -0.0674,-1.06437 -0.15813,-0.8606 -0.0646,0.14512 -0.0692,0.94358 -0.007,1.16612 0.0699,0.2488 0.12576,0.14525 0.16478,-0.30552 z m 1.53658,-1.35346 c 0.14428,-0.32929 0.14924,-0.37977 0.0235,-0.23897 -0.22679,0.25408 -0.54536,0.96974 -0.35216,0.79114 0.0801,-0.0741 0.22802,-0.32256 0.32861,-0.55218 z"
       id="path268-3" />
  </g>
</svg>
